<?xml version="1.0" encoding="UTF-8" ?>
<!DOCTYPE svg PUBLIC "-//W3C//DTD SVG 1.1//EN" "http://www.w3.org/Graphics/SVG/1.1/DTD/svg11.dtd">
<svg width="384pt" height="384pt" viewBox="0 0 384 384" version="1.1" xmlns="http://www.w3.org/2000/svg">
<g id="#ffffffff">
<path fill="#ffffff" opacity="1.00" d=" M 191.52 0.00 L 192.54 0.00 C 211.14 -0.01 228.59 13.80 232.71 31.93 C 235.72 43.79 233.18 56.95 225.85 66.77 C 219.61 75.24 210.15 81.50 199.70 83.18 C 187.78 85.60 174.87 82.26 165.51 74.51 C 157.93 68.30 152.38 59.41 150.81 49.68 C 147.93 35.64 153.17 20.35 163.90 10.88 C 171.36 3.96 181.39 0.24 191.52 0.00 Z" />
<path fill="#ffffff" opacity="1.00" d=" M 52.51 84.23 C 58.59 83.06 64.27 86.18 70.01 87.66 C 107.68 97.72 145.98 106.62 185.06 108.51 C 204.87 109.12 224.63 106.53 244.14 103.38 C 267.86 99.26 291.32 93.73 314.52 87.32 C 318.97 86.02 323.41 84.47 328.05 84.01 C 335.60 83.76 341.93 89.34 345.03 95.85 C 348.22 102.78 349.49 111.45 345.35 118.28 C 340.66 125.64 332.29 129.30 324.46 132.35 C 301.43 140.40 278.38 148.41 255.37 156.50 C 250.39 158.67 244.17 160.74 241.91 166.13 C 239.30 179.16 242.67 192.35 244.17 205.31 C 246.14 226.60 251.01 247.46 254.62 268.51 C 260.31 298.34 265.67 328.24 271.39 358.07 C 272.19 363.17 272.13 368.77 269.19 373.23 C 265.07 380.54 256.46 383.78 248.43 384.00 L 246.95 384.00 C 242.43 383.64 237.70 382.74 234.09 379.80 C 228.52 375.53 225.84 368.70 224.13 362.11 C 218.46 332.34 212.50 302.60 204.83 273.27 C 203.21 267.89 201.87 262.42 199.96 257.13 C 198.03 251.55 196.30 245.52 191.88 241.34 C 188.08 243.78 186.64 248.23 185.03 252.20 C 176.98 275.20 172.46 299.22 167.20 322.96 C 164.86 335.60 162.18 348.18 160.01 360.86 C 158.35 367.85 155.74 375.24 149.82 379.77 C 146.29 382.66 141.68 383.56 137.26 384.00 L 135.66 384.00 C 126.20 384.05 116.16 379.08 112.96 369.70 C 110.26 360.12 114.55 350.53 115.58 341.03 C 119.54 319.68 123.31 298.30 127.30 276.96 C 131.71 251.21 137.37 225.65 139.86 199.61 C 141.40 188.19 143.92 176.57 141.88 165.05 C 140.77 159.49 135.52 156.32 130.54 154.68 C 107.19 147.30 83.78 140.13 60.43 132.75 C 53.06 129.59 45.03 126.61 39.92 120.07 C 35.73 115.00 35.14 107.81 36.83 101.64 C 38.57 93.75 44.20 85.89 52.51 84.23 Z" />
</g>
</svg>
