<?xml version="1.0" encoding="UTF-8" ?>
<!DOCTYPE svg PUBLIC "-//W3C//DTD SVG 1.1//EN" "http://www.w3.org/Graphics/SVG/1.1/DTD/svg11.dtd">
<svg width="612pt" height="346pt" viewBox="0 0 612 346" version="1.1" xmlns="http://www.w3.org/2000/svg">
<g id="#ffffffff">
<path fill="#ffffff" opacity="1.00" d=" M 63.64 0.00 L 64.37 0.00 C 173.56 42.55 282.83 84.93 392.09 127.29 C 424.26 121.59 456.37 115.21 488.53 109.30 C 491.89 108.64 495.32 108.11 498.49 106.73 C 510.36 101.70 522.92 97.49 535.93 97.31 C 542.31 97.35 548.81 97.26 555.02 98.92 C 561.00 100.27 566.08 103.92 571.73 106.13 C 582.11 110.54 593.78 111.52 603.63 117.22 C 608.70 120.02 611.72 125.48 612.00 131.20 L 612.00 131.83 C 611.20 141.88 602.93 148.87 595.14 154.12 C 579.12 164.47 560.89 170.72 542.80 176.43 C 504.26 187.90 464.70 195.79 424.87 201.19 C 404.89 244.77 384.92 288.36 364.91 331.93 C 362.73 336.92 358.86 341.46 353.53 343.14 C 345.70 345.17 337.51 344.66 329.58 346.00 L 329.42 346.00 C 329.40 315.83 329.43 285.67 329.41 255.50 C 316.92 244.33 304.33 233.26 291.87 222.05 C 283.21 222.45 274.64 223.89 265.97 224.22 C 247.70 225.97 229.32 225.84 210.99 226.03 C 191.14 225.83 171.28 226.01 151.46 224.81 C 145.72 224.26 139.96 223.95 134.20 223.72 C 131.58 233.45 129.75 243.40 127.05 253.10 C 123.16 257.76 115.99 258.42 110.39 257.04 C 100.14 243.39 89.90 229.73 79.64 216.09 C 72.73 215.43 64.60 215.77 59.12 210.86 C 57.73 206.11 60.03 200.64 64.53 198.44 C 44.29 179.71 24.19 160.82 4.00 142.05 C 2.57 140.74 1.16 139.40 0.00 137.84 L 0.00 136.03 L 0.01 137.21 C 2.21 132.85 7.44 131.42 11.91 130.86 C 16.90 130.30 21.87 131.46 26.30 133.76 C 46.58 143.38 66.90 152.92 87.18 162.55 C 85.88 146.34 84.32 130.15 83.03 113.93 C 89.96 113.55 97.30 109.44 103.95 113.10 C 108.69 115.39 113.20 118.29 116.96 122.00 C 131.35 137.42 145.68 152.90 160.07 168.32 C 185.23 163.72 210.37 158.99 235.47 154.06 C 225.01 143.36 214.51 132.70 204.06 121.99 C 202.58 120.48 201.18 118.85 199.44 117.64 C 144.73 83.18 89.93 48.84 35.24 14.34 C 39.88 10.92 44.40 7.34 49.00 3.87 C 53.14 0.59 58.64 0.57 63.64 0.00 Z" />
</g>
</svg>
